<svg xmlns="http://www.w3.org/2000/svg" xmlns:xlink="http://www.w3.org/1999/xlink" xml:space="default" version="1.1" font-family="arial" viewBox="0 0 558 600" preserveAspectRatio="xMinYMin"><defs><marker viewBox="0 0 24 24" refX="12" refY="12" markerUnits="strokeWidth" markerWidth="10" markerHeight="10" orient="auto" id="A3_000000"><path d="M 0 4 L 18 12 L 0 20 z" fill="#000000" stroke="#000000"/></marker></defs><g><g id="S1349387729103" transform="rotate(47,115,100)"><rect x="90" y="40" width="50" height="120" fill="#e6e6fa" stroke="#000000" stroke-dasharray="0"/></g><g id="S1349387731020"><ellipse cx="250" cy="90" rx="60" ry="40" fill="#e6e6fa" stroke="#000000" stroke-dasharray="0"/></g><g id="S1349387734637"><line x1="70" y1="240" x2="410" y2="230" marker-end="url(#A3_000000)" stroke="#000000" stroke-dasharray="0"/></g><g id="S1349395084909"><path fill="none" marker-end="url(#A3_000000)" stroke="#000000" stroke-dasharray="0" d="M 280 410 Q 170 370 150 380 C 130 390 150 440 150 440 Q 150 440 170 400"/><path fill="none" stroke="#ffffff" stroke-opacity="0.01" stroke-width="18" d="M 280 410 Q 170 370 150 380 C 130 390 150 440 150 440 Q 150 440 170 400"/></g><g id="S1349471168594" transform="translate(412,133)"><g transform="scale(1)"><g><image x="-22" y="-23" xlink:href="/csi-requesthandler/RequestHandler?URL=cf%3A%2F%2Ffv%2F96965&amp;Module=Publisher&amp;Operation=GetDirect&amp;OutputJSON=1" preserveAspectRatio="xMinYMin meet" width="44" height="46"/></g></g></g></g></svg>